<?xml version="1.0" encoding="UTF-8" standalone="no"?>
<!-- Created with Inkscape (http://www.inkscape.org/) -->

<svg
   width="135.46666mm"
   height="135.46666mm"
   viewBox="0 0 135.46666 135.46666"
   version="1.1"
   id="svg1"
   inkscape:version="1.3.2 (091e20e, 2023-11-25, custom)"
   sodipodi:docname="texture_quad.svg"
   xml:space="preserve"
   xmlns:inkscape="http://www.inkscape.org/namespaces/inkscape"
   xmlns:sodipodi="http://sodipodi.sourceforge.net/DTD/sodipodi-0.dtd"
   xmlns="http://www.w3.org/2000/svg"
   xmlns:svg="http://www.w3.org/2000/svg"><sodipodi:namedview
     id="namedview1"
     pagecolor="#505050"
     bordercolor="#ffffff"
     borderopacity="1"
     inkscape:showpageshadow="0"
     inkscape:pageopacity="0"
     inkscape:pagecheckerboard="1"
     inkscape:deskcolor="#d1d1d1"
     inkscape:document-units="mm"
     inkscape:zoom="0.3552795"
     inkscape:cx="22.517483"
     inkscape:cy="237.84091"
     inkscape:window-width="1366"
     inkscape:window-height="705"
     inkscape:window-x="-8"
     inkscape:window-y="-8"
     inkscape:window-maximized="1"
     inkscape:current-layer="layer1"
     showgrid="false" /><defs
     id="defs1" /><g
     inkscape:label="Capa 1"
     inkscape:groupmode="layer"
     id="layer1"
     transform="translate(-75.935415,-94.985417)"><path
       style="fill:#ffffff;fill-opacity:1;stroke:#000000;stroke-width:3.243;stroke-linecap:round;stroke-linejoin:round;stroke-miterlimit:4;stroke-dasharray:none;stroke-opacity:1"
       d="m 78.711515,230.39207 c 14.652995,-19.03488 10.969201,-50.42878 25.799495,-9.1057 9.86063,-32.53883 -12.559715,-136.391967 23.9999,-28.97309 13.8855,-14.622 -7.52887,-57.11633 9.99472,-33.85626 -0.99154,-36.88069 5.95259,-11.05748 11.8374,3.33876 2.8349,-31.08533 6.94243,-83.906909 13.35502,16.99732 9.99755,-63.13748 11.63899,13.53564 18.51493,45.5285 5.2678,-45.26046 15.91997,-63.05281 13.05151,-6.07047 15.11348,-53.56048 14.41544,-19.66427 11.53389,12.07338"
       id="path825-0"
       sodipodi:nodetypes="ccccccccc"
       inkscape:export-filename="C:\Users\ab-cb\Documents\GitHub\my-godotshaders\GrassPainter\Images\grass_texture.png"
       inkscape:export-xdpi="125.50024"
       inkscape:export-ydpi="125.50024" /><g
       id="g27"
       transform="matrix(1.6788706,0,0,1.6788708,-561.99143,-207.43656)"><path
         style="fill:none;stroke:#ffffff;stroke-width:3.54932;stroke-linecap:round;stroke-linejoin:miter;stroke-dasharray:none;stroke-opacity:1"
         d="m 256.82108,257.34178 c -2.50521,-2.22663 -5.10963,-4.36398 -5.598,-8.40577"
         id="path1"
         sodipodi:nodetypes="cc" /><path
         style="fill:none;stroke:#ffffff;stroke-width:2.36621;stroke-linecap:round;stroke-linejoin:miter;stroke-dasharray:none;stroke-opacity:1"
         d="m 323.69198,252.79073 c -0.76517,5.07962 -2.19937,4.33411 -3.48538,6.54913"
         id="path2"
         sodipodi:nodetypes="cc" /><path
         style="fill:none;stroke:#ffffff;stroke-width:2.36621;stroke-linecap:round;stroke-linejoin:miter;stroke-dasharray:none;stroke-opacity:1"
         d="m 315.98253,207.74548 c 0.88108,6.16757 -1.21149,37.33579 -5.17635,43.9439"
         id="path3"
         sodipodi:nodetypes="cc" /><path
         style="fill:none;stroke:#ffffff;stroke-width:3.07607;stroke-linecap:round;stroke-linejoin:miter;stroke-dasharray:none;stroke-opacity:1"
         d="m 319.06631,216.99683 -3.52432,38.54728"
         id="path4" /><path
         style="fill:none;stroke:#ffffff;stroke-width:2.36621;stroke-linecap:round;stroke-linejoin:miter;stroke-dasharray:none;stroke-opacity:1"
         d="m 325.89469,211.49008 -13.65675,39.42836"
         id="path5"
         sodipodi:nodetypes="cc" /><path
         style="fill:none;stroke:#ffffff;stroke-width:2.36621;stroke-linecap:round;stroke-linejoin:miter;stroke-dasharray:none;stroke-opacity:1"
         d="m 311.57712,215.67521 c 0,0 -20.92567,29.07567 -12.5554,37.88647"
         id="path6" /><path
         style="fill:none;stroke:#ffffff;stroke-width:2.36621;stroke-linecap:round;stroke-linejoin:miter;stroke-dasharray:none;stroke-opacity:1"
         d="m 304.08794,210.82926 c 0,0 8.14999,23.56892 4.62567,42.07161"
         id="path7" /><path
         style="fill:none;stroke:#ffffff;stroke-width:4.14087;stroke-linecap:round;stroke-linejoin:miter;stroke-dasharray:none;stroke-opacity:1"
         d="m 305.40956,232.41574 c -2.42297,23.12837 -5.83716,24.45 -5.83716,24.45"
         id="path8"
         sodipodi:nodetypes="cc" /><path
         style="fill:none;stroke:#ffffff;stroke-width:3.07607;stroke-linecap:round;stroke-linejoin:miter;stroke-dasharray:none;stroke-opacity:1"
         d="m 293.07442,203.56035 c -1.10326,2.57428 4.6558,31.20808 4.18514,48.23917"
         id="path9"
         sodipodi:nodetypes="cc" /><path
         style="fill:none;stroke:#ffffff;stroke-width:2.36621;stroke-linecap:round;stroke-linejoin:miter;stroke-dasharray:none;stroke-opacity:1"
         d="m 300.34334,196.73197 c 0,0 -17.62162,41.4108 -14.09729,54.84728"
         id="path10" /><path
         style="fill:none;stroke:#ffffff;stroke-width:3.07607;stroke-linecap:round;stroke-linejoin:miter;stroke-dasharray:none;stroke-opacity:1"
         d="m 285.58524,200.2563 0.44054,53.74592"
         id="path11" /><path
         style="fill:none;stroke:#ffffff;stroke-width:2.36621;stroke-linecap:round;stroke-linejoin:miter;stroke-dasharray:none;stroke-opacity:1"
         d="m 287.78794,217.65764 c -1.60168,25.45143 9.02789,32.65267 9.25135,32.82026"
         id="path12"
         sodipodi:nodetypes="cc" /><path
         style="fill:none;stroke:#ffffff;stroke-width:2.36621;stroke-linecap:round;stroke-linejoin:miter;stroke-dasharray:none;stroke-opacity:1"
         d="m 303.86767,208.62656 c 0,0 -11.45406,29.07567 -10.57297,44.71485"
         id="path13" /><path
         style="fill:none;stroke:#ffffff;stroke-width:2.36621;stroke-linecap:round;stroke-linejoin:miter;stroke-dasharray:none;stroke-opacity:1"
         d="m 282.06091,215.45494 -3.52432,36.56485"
         id="path14" /><path
         style="fill:none;stroke:#ffffff;stroke-width:2.36621;stroke-linecap:round;stroke-linejoin:miter;stroke-dasharray:none;stroke-opacity:1"
         d="m 261.79606,218.97926 c 0,0 17.84188,14.7581 27.3135,31.71891"
         id="path15" /><path
         style="fill:none;stroke:#ffffff;stroke-width:3.07607;stroke-linecap:round;stroke-linejoin:miter;stroke-dasharray:none;stroke-opacity:1"
         d="m 275.45281,198.93467 c 0,0 -1.32162,46.25674 6.82837,54.84728"
         id="path16" /><path
         style="fill:none;stroke:#ffffff;stroke-width:3.07607;stroke-linecap:round;stroke-linejoin:miter;stroke-dasharray:none;stroke-opacity:1"
         d="m 267.08254,203.34008 c 0,0 6.82838,45.8162 10.13243,49.56079"
         id="path17" /><path
         style="fill:none;stroke:#ffffff;stroke-width:3.07607;stroke-linecap:round;stroke-linejoin:miter;stroke-dasharray:none;stroke-opacity:1"
         d="m 269.72578,218.75899 c 0,0 -5.94729,19.82432 2.20271,33.04053"
         id="path18" /><path
         style="fill:none;stroke:#ffffff;stroke-width:3.07607;stroke-linecap:round;stroke-linejoin:miter;stroke-dasharray:none;stroke-opacity:1"
         d="m 254.96768,209.72791 c 0,0 11.23378,14.31757 10.13243,40.74999"
         id="path19" /><path
         style="fill:none;stroke:#ffffff;stroke-width:3.07607;stroke-linecap:round;stroke-linejoin:miter;stroke-dasharray:none;stroke-opacity:1"
         d="m 251.66363,204.44143 c 0,0 -6.38784,33.92161 14.09729,46.91755"
         id="path20" /><path
         style="fill:none;stroke:#ffffff;stroke-width:2.36621;stroke-linecap:round;stroke-linejoin:miter;stroke-dasharray:none;stroke-opacity:1"
         d="m 253.20552,220.9617 c 0,0 -1.98244,12.33512 4.84594,30.17701"
         id="path21" /><path
         style="fill:none;stroke:#ffffff;stroke-width:2.36621;stroke-linecap:round;stroke-linejoin:miter;stroke-dasharray:none;stroke-opacity:1"
         d="m 258.05146,219.64007 3.08378,37.44594"
         id="path22" /><path
         style="fill:#ffffff;fill-opacity:1;stroke:#ffffff;stroke-width:0.31303px;stroke-linecap:butt;stroke-linejoin:miter;stroke-opacity:1"
         d="m 254.30687,260.8306 c 0,0 -3.72677,-8.08862 -3.74067,-8.75531 -0.0138,-0.66669 2.51712,-0.58941 2.57202,-1.58533 1.47918,1.25973 0.92289,0.64163 1.63354,-0.46826 0.91634,-1.33455 1.15373,-7.64407 2.38053,-8.64833 1.2268,-1.00425 5.46781,3.60827 6.91518,2.93519 1.44736,-0.67308 1.42499,-2.97151 3.00304,-3.31253 1.57805,-0.34101 2.7568,2.90854 4.37564,2.90048 1.60997,-0.008 0.85222,-3.14681 2.28585,-2.53674 1.43363,0.61008 5.09211,-3.05307 5.65975,-1.52788 0.90851,2.44104 4.93994,7.73011 6.61354,7.64236 1.62422,-0.0852 1.98466,2.08513 3.54473,2.48294 1.22728,0.31295 2.48845,1.96513 3.76545,2.14121 1.277,0.17608 2.34957,-0.71338 3.64019,-0.6977 1.29062,0.0157 3.90066,-2.80808 5.1688,-2.97633 1.26814,-0.16824 1.08424,0.22649 2.2938,-0.14918 0.68073,-0.21143 1.6165,1.66221 2.1855,1.12999 0.56901,-0.53222 1.10167,-0.3865 1.63701,-0.97 0.53534,-0.5835 1.07337,-1.12527 1.65312,-1.49054 0.57974,-0.36528 1.20121,-0.55406 1.90342,-0.4316 1.42523,0.24855 3.9826,-2.27043 5.19975,-0.9022 1.21714,1.36822 1.75487,6.62364 2.00431,8.32367 0.13997,0.95397 0.54999,1.6605 1.53321,1.7389 0.98323,0.0784 2.85117,-1.48376 3.10344,-0.86178 0.50453,1.24395 -1.68873,6.01169 -1.68873,6.01169 -22.54646,-0.26439 -45.09514,-0.066 -67.64242,0.007 z"
         id="path25"
         sodipodi:nodetypes="cssssssssssssssssssssssscc" /></g></g></svg>
