<?xml version="1.0" encoding="UTF-8" standalone="no"?>
<!-- Created with Inkscape (http://www.inkscape.org/) -->

<svg
   width="33.866669mm"
   height="33.866665mm"
   viewBox="0 0 33.866668 33.866664"
   version="1.1"
   id="svg11372"
   inkscape:version="1.3.2 (091e20e, 2023-11-25, custom)"
   sodipodi:docname="tab_spawn.svg"
   xml:space="preserve"
   xmlns:inkscape="http://www.inkscape.org/namespaces/inkscape"
   xmlns:sodipodi="http://sodipodi.sourceforge.net/DTD/sodipodi-0.dtd"
   xmlns="http://www.w3.org/2000/svg"
   xmlns:svg="http://www.w3.org/2000/svg"><sodipodi:namedview
     id="namedview11374"
     pagecolor="#5d5d5d"
     bordercolor="#ffffff"
     borderopacity="1"
     inkscape:pageshadow="0"
     inkscape:pageopacity="0"
     inkscape:pagecheckerboard="1"
     inkscape:document-units="mm"
     showgrid="false"
     inkscape:snap-global="true"
     inkscape:snap-bbox="true"
     inkscape:snap-bbox-midpoints="true"
     inkscape:zoom="2.8284271"
     inkscape:cx="46.138717"
     inkscape:cy="5.4800776"
     inkscape:window-width="1366"
     inkscape:window-height="705"
     inkscape:window-x="-8"
     inkscape:window-y="-8"
     inkscape:window-maximized="1"
     inkscape:current-layer="layer1"
     inkscape:showpageshadow="0"
     inkscape:deskcolor="#888888"
     showguides="false" /><defs
     id="defs11369" /><g
     inkscape:label="Capa 1"
     inkscape:groupmode="layer"
     id="layer1"
     transform="translate(253.95117,296.68639)"><g
       id="g23"
       transform="matrix(2.0000001,0,0,2.0000001,193.21018,258.5814)"><g
         id="g13"
         transform="translate(33.946657,-22.008987)"><g
           id="g950"
           transform="translate(-27.611123,-40.690659)"
           style="opacity:0.411335;fill:#f2f2ff;fill-opacity:0"><rect
             style="fill:#f2f2ff;fill-opacity:0;stroke-width:0.700001;stroke-linecap:round;stroke-linejoin:round"
             id="rect948"
             width="16.933332"
             height="16.933332"
             x="-229.9162"
             y="-214.93423"
             ry="0" /></g></g><g
         id="g24"
         transform="translate(0.06411037,0.06461278)"><path
           style="fill:#ffffff;fill-opacity:1;stroke:none;stroke-width:0.216595px;stroke-linecap:butt;stroke-linejoin:miter;stroke-opacity:1"
           d="m -217.87441,-262.29748 c -0.93372,0.20879 -3.07167,0.73364 -3.96609,-1.99689 -0.7518,-2.29507 1.362,-4.56643 1.41862,-3.95776 0.16929,1.81956 0.78284,1.63585 1.00754,2.31557 -0.81706,-2.94372 2.15572,-5.23376 2.13218,-4.71617 -0.0817,1.79598 0.0482,2.56563 0.74614,3.80656 0.63184,-1.38915 2.83535,-2.67829 2.67406,-2.12282 -0.62063,2.1373 -0.14315,2.47724 -0.11783,2.98106 0.15603,3.1046 -3.02613,3.46885 -3.89454,3.69044 z"
           id="path22"
           sodipodi:nodetypes="csscscsscc"
           inkscape:export-filename="..\..\..\..\..\..\Desktop\icon.png"
           inkscape:export-xdpi="96"
           inkscape:export-ydpi="96" /><path
           style="fill:#ffffff;fill-opacity:1;stroke:none;stroke-width:0.176664px;stroke-linecap:butt;stroke-linejoin:miter;stroke-opacity:1"
           d="m -212.34891,-269.47377 c 0.76158,0.1703 2.50538,0.59839 3.2349,-1.62875 0.6132,-1.87195 -1.1109,-3.72456 -1.15708,-3.22811 -0.13808,1.48411 -0.63852,1.33427 -0.82179,1.88868 0.66642,-2.40102 -1.7583,-4.26887 -1.7391,-3.8467 0.0666,1.46487 -0.0393,2.09263 -0.60858,3.10478 -0.51535,-1.13304 -2.31262,-2.18452 -2.18107,-1.73146 0.50621,1.74327 0.11676,2.02054 0.0961,2.43148 -0.12727,2.53224 2.46823,2.82933 3.17654,3.01007 z"
           id="path23"
           sodipodi:nodetypes="csscscsscc"
           inkscape:export-filename="..\..\..\..\..\..\Desktop\icon.png"
           inkscape:export-xdpi="96"
           inkscape:export-ydpi="96" /><path
           style="fill:#ffffff;fill-opacity:1;stroke:none;stroke-width:0.114484px;stroke-linecap:butt;stroke-linejoin:miter;stroke-opacity:1"
           d="m -210.53589,-263.65894 c 0.49352,0.1562 1.62356,0.5386 2.09631,-0.86069 0.39737,-1.17615 -0.7199,-2.48051 -0.74982,-2.16158 -0.0895,0.95343 -0.41378,0.8262 -0.53255,1.17443 0.43186,-1.5158 -1.13943,-2.87223 -1.12699,-2.59749 0.0432,0.9533 -0.0255,1.35371 -0.39437,1.97534 -0.33397,-0.76528 -1.49865,-1.55488 -1.4134,-1.25336 0.32804,1.16017 0.0757,1.31641 0.0623,1.58146 -0.0825,1.63329 1.59949,1.98211 2.0585,2.14189 z"
           id="path24"
           sodipodi:nodetypes="csscscsscc"
           inkscape:export-filename="..\..\..\..\..\..\Desktop\icon.png"
           inkscape:export-xdpi="96"
           inkscape:export-ydpi="96" /></g><g
         id="g21"
         transform="translate(6.3355344,-62.699646)"
         style="opacity:0.411335;fill:#f2f2ff;fill-opacity:0"><rect
           style="fill:#f2f2ff;fill-opacity:0;stroke-width:0.700001;stroke-linecap:round;stroke-linejoin:round"
           id="rect19"
           width="16.933332"
           height="16.933332"
           x="-229.9162"
           y="-214.93423"
           ry="0" /></g></g></g></svg>
