<?xml version="1.0" encoding="UTF-8" standalone="no"?>
<!-- Created with Inkscape (http://www.inkscape.org/) -->

<svg
   width="33.866665mm"
   height="33.866665mm"
   viewBox="0 0 33.866664 33.866664"
   version="1.1"
   id="svg11372"
   inkscape:version="1.3.2 (091e20e, 2023-11-25, custom)"
   sodipodi:docname="tab_paint.svg"
   xml:space="preserve"
   xmlns:inkscape="http://www.inkscape.org/namespaces/inkscape"
   xmlns:sodipodi="http://sodipodi.sourceforge.net/DTD/sodipodi-0.dtd"
   xmlns="http://www.w3.org/2000/svg"
   xmlns:svg="http://www.w3.org/2000/svg"><sodipodi:namedview
     id="namedview11374"
     pagecolor="#5d5d5d"
     bordercolor="#ffffff"
     borderopacity="1"
     inkscape:pageshadow="0"
     inkscape:pageopacity="0"
     inkscape:pagecheckerboard="1"
     inkscape:document-units="mm"
     showgrid="false"
     inkscape:snap-global="true"
     inkscape:snap-bbox="true"
     inkscape:snap-bbox-midpoints="true"
     inkscape:zoom="1.4142136"
     inkscape:cx="-15.556349"
     inkscape:cy="98.641396"
     inkscape:window-width="1366"
     inkscape:window-height="705"
     inkscape:window-x="-8"
     inkscape:window-y="-8"
     inkscape:window-maximized="1"
     inkscape:current-layer="layer1"
     inkscape:showpageshadow="0"
     inkscape:deskcolor="#888888"
     showguides="false" /><defs
     id="defs11369" /><g
     inkscape:label="Capa 1"
     inkscape:groupmode="layer"
     id="layer1"
     transform="translate(152.35118,296.68639)"><g
       id="g16"
       transform="matrix(2.0000001,0,0,2.0000001,16.884596,296.68643)"><g
         id="g7"
         transform="translate(128.36631,-81.752162)"><rect
           style="fill:#21262e;fill-opacity:0;stroke-width:0.700001;stroke-linecap:round;stroke-linejoin:round"
           id="rect12141"
           width="16.933332"
           height="16.933332"
           x="-212.98419"
           y="-214.93423"
           ry="0" /></g><g
         id="g9-0"
         transform="matrix(0.4191394,0,0,0.4191394,-123.08026,-306.61932)"
         style="fill:#db7093;fill-opacity:1"><path
           style="color:#000000;fill:#db7093;fill-opacity:1;stroke-linecap:round;-inkscape-stroke:none"
           d="m 102.26763,55.858231 c 12.10024,3.002416 19.30686,-1.439576 18.95533,3.027025 -2.60715,4.015819 -18.7174,0.15067 -21.433255,-1.644325 -4.722798,-3.121453 -5.672914,-3.405161 2.477925,-1.3827 z"
           id="path7"
           sodipodi:nodetypes="ssss" /><path
           style="fill:#db7093;fill-opacity:1;stroke:none;stroke-width:0.726502px;stroke-linecap:butt;stroke-linejoin:miter;stroke-opacity:1"
           d="m 114.09386,55.013334 c 3.13189,-0.06257 10.303,-0.04852 13.30309,-9.937643 2.52169,-8.312242 -4.56844,-14.204197 -4.75837,-12.116328 -0.56782,6.241437 -2.62579,6.126423 -3.37948,8.589862 2.74059,-10.541245 -7.23071,-15.79421 -7.15176,-14.077339 0.27393,5.957365 -0.16168,8.645019 -2.50274,13.377462 -2.11931,-4.143407 -9.51034,-6.667472 -8.96932,-4.93606 2.08171,6.661982 0.48014,8.192239 0.39521,9.902813 -0.52335,10.540909 10.15028,9.163371 13.06311,9.197233 z"
           id="path6-4-5"
           sodipodi:nodetypes="csscscsscc"
           inkscape:export-filename="..\..\..\..\..\..\Desktop\icon.png"
           inkscape:export-xdpi="96"
           inkscape:export-ydpi="96" /></g></g></g></svg>
