<?xml version="1.0" encoding="UTF-8" standalone="no"?>
<!-- Created with Inkscape (http://www.inkscape.org/) -->

<svg
   width="135.46666mm"
   height="135.46666mm"
   viewBox="0 0 135.46665 135.46665"
   version="1.1"
   id="svg1"
   xml:space="preserve"
   sodipodi:docname="paving_stones.svg"
   inkscape:version="1.3.2 (091e20e, 2023-11-25, custom)"
   xmlns:inkscape="http://www.inkscape.org/namespaces/inkscape"
   xmlns:sodipodi="http://sodipodi.sourceforge.net/DTD/sodipodi-0.dtd"
   xmlns="http://www.w3.org/2000/svg"
   xmlns:svg="http://www.w3.org/2000/svg"><sodipodi:namedview
     id="namedview1"
     pagecolor="#ffffff"
     bordercolor="#000000"
     borderopacity="0.25"
     inkscape:showpageshadow="2"
     inkscape:pageopacity="0.0"
     inkscape:pagecheckerboard="0"
     inkscape:deskcolor="#d1d1d1"
     inkscape:document-units="mm"
     inkscape:zoom="0.64126689"
     inkscape:cx="159.06014"
     inkscape:cy="301.74644"
     inkscape:window-width="1366"
     inkscape:window-height="705"
     inkscape:window-x="-8"
     inkscape:window-y="-8"
     inkscape:window-maximized="1"
     inkscape:current-layer="layer1" /><defs
     id="defs1" /><g
     inkscape:label="Capa 1"
     inkscape:groupmode="layer"
     id="layer1"
     transform="translate(127.52008,-8.1719046)"><rect
       style="fill:#848484;fill-opacity:1;fill-rule:evenodd;stroke:none;stroke-width:1.35;stroke-linecap:round;stroke-linejoin:round;stroke-dasharray:none;stroke-dashoffset:9.52666;stroke-opacity:1"
       id="rect250-0"
       width="135.46666"
       height="135.46666"
       x="-127.52008"
       y="8.1719046"
       ry="0.052091055" /><path
       style="fill:#92979a;fill-opacity:1;fill-rule:evenodd;stroke:#848484;stroke-width:1.36538;stroke-linecap:round;stroke-linejoin:round;stroke-dasharray:none;stroke-dashoffset:2.5206;stroke-opacity:1"
       d="m -125.4873,8.9510598 2.97225,0.444893 4.39552,-0.222446 1.43108,0.8897892 0.99075,-0.6673432 7.04533,0.333672 1.43108,1.0010112 c 0,0 0.55041,11.881034 0,15.662635 -0.55041,3.781601 -0.33024,3.336705 -0.33024,3.336705 l -7.15541,0.88979 -0.55042,-0.88979 -3.08234,0.556119 -6.37702,-0.667341 -1.76132,-0.556118 0.5504,-18.332 z"
       id="path33"
       sodipodi:nodetypes="cccccccscccccccc" /><path
       style="fill:#9b9f9f;fill-opacity:1;fill-rule:evenodd;stroke:#848484;stroke-width:1.36538;stroke-linecap:round;stroke-linejoin:round;stroke-dasharray:none;stroke-dashoffset:9.52666;stroke-opacity:1"
       d="m -74.30642,10.10351 1.43108,-0.8897875 9.79741,-0.222446 4.6235,1.3346805 1.21091,14.732632 -0.77059,2.224471 -2.75208,-0.111224 -1.21091,0.889789 -4.95375,-0.33367 -5.06382,-2.891814 -1.10084,0.111224 C -75.47532,12.612758 -73.33593,12.404859 -74.30642,10.10351 Z"
       id="path34"
       sodipodi:nodetypes="cccccccccccc" /><path
       style="fill:#8a9194;fill-opacity:1;fill-rule:evenodd;stroke:#848484;stroke-width:1.36538;stroke-linecap:round;stroke-linejoin:round;stroke-dasharray:none;stroke-dashoffset:9.52666;stroke-opacity:1"
       d="m -55.17433,10.630689 2.02386,-1.4156437 5.52668,-0.07865 2.33521,1.2583507 1.24545,-1.3369977 2.64659,0.393234 1.86816,-0.23594 0.70057,6.7940227 -0.23352,5.898519 -1.08976,0.393236 0.54487,1.572937 -0.3892,4.010994 -5.83805,0.471882 -4.74826,-0.629177 -0.31137,0.943763 -2.41306,-0.943763 -1.47897,-0.157292 -0.0779,-2.752643 0.54488,-2.202114 -0.62274,-1.179703 z"
       id="path35"
       sodipodi:nodetypes="ccccccccccccccccccccc" /><path
       style="fill:#929596;fill-opacity:1;fill-rule:evenodd;stroke:#848484;stroke-width:1.36538;stroke-linecap:round;stroke-linejoin:round;stroke-dasharray:none;stroke-dashoffset:9.52666;stroke-opacity:1"
       d="m -37.27099,10.40617 1.47896,-1.336999 12.4545,0.786468 2.10169,2.752644 0.46704,8.434187 -0.70056,0.943765 0.46704,0.707822 -0.3892,4.561521 -1.24545,1.336999 -2.64659,-0.235941 -1.1676,0.629176 -2.33521,-0.55053 -2.56874,0.943764 -2.4909,-0.235942 -1.47898,-1.022409 -1.79033,-0.550528 0.46705,-3.775053 -0.77841,-1.887526 0.46704,-1.02241 -0.46704,-2.202114 z"
       id="path36"
       sodipodi:nodetypes="ccccccccccccccccccccc" /><path
       style="fill:#999c9d;fill-opacity:1;fill-rule:evenodd;stroke:#848484;stroke-width:1.36538;stroke-linecap:round;stroke-linejoin:round;stroke-dasharray:none;stroke-dashoffset:9.52666;stroke-opacity:1"
       d="m -20.39602,26.838165 -0.11009,-15.348849 1.76133,-1.445905 2.31175,0.333671 2.20167,-0.5561182 4.8436597,0.3336692 2.5319,0.556118 2.42184,-0.444893 c 0,0 1.66527,6.781588 -0.33026,13.680495 -0.19002,0.656923 -0.33025,2.446918 -0.33025,2.446918 l -4.18315,1.223458 H -17.53387 Z"
       id="path37"
       sodipodi:nodetypes="ccccccccscccc" /><path
       style="fill:#b0aeab;fill-opacity:1;fill-rule:evenodd;stroke:#848484;stroke-width:1.36538;stroke-linecap:round;stroke-linejoin:round;stroke-dasharray:none;stroke-dashoffset:9.52666;stroke-opacity:1"
       d="m -88.28698,9.5309203 9.35707,-1.00101 3.30249,0.66734 0.22017,4.2264947 -1.10083,1.445906 0.22017,9.96649 -0.77059,2.113248 h -4.07307 l -1.65125,1.001012 -3.19241,-0.333672 -2.86217,1.112236 -2.64199,-2.446919 0.33025,-4.004045 0.88066,-1.334682 -0.33026,-6.629786 z"
       id="path38"
       sodipodi:nodetypes="cccccccccccccccc" /><path
       style="fill:#979999;fill-opacity:1;fill-rule:evenodd;stroke:#848484;stroke-width:1.36538;stroke-linecap:round;stroke-linejoin:round;stroke-dasharray:none;stroke-dashoffset:9.52666;stroke-opacity:1"
       d="m -57.24352,29.841202 5.06383,0.111224 0.77058,1.334682 1.10082,-1.334682 6.93525,0.66734 0.22017,8.675439 -0.66051,3.892824 0.33026,3.44792 -5.9445,-0.11122 -2.09158,-1.00101 -4.62349,0.22244 -2.20166,-0.66734 0.55041,-5.894844 -0.11008,-1.557122 0.77059,-2.780594 z"
       id="path39"
       sodipodi:nodetypes="cccccccccccccccc" /><path
       style="fill:#949898;fill-opacity:1;fill-rule:evenodd;stroke:#848484;stroke-width:1.36538;stroke-linecap:round;stroke-linejoin:round;stroke-dasharray:none;stroke-dashoffset:9.52666;stroke-opacity:1"
       d="m -41.72179,31.287108 1.65125,-1.334682 1.43107,0.66734 1.10084,-0.66734 1.21091,1.001011 1.321,-0.889789 3.963,0.444893 1.54117,-0.778565 3.52265,0.778565 -0.99074,5.44996 0.66049,5.783618 -0.66049,2.00202 v 1.44591 l -1.76133,0.88978 -1.43109,-0.22245 -1.10083,0.66735 -2.20167,-0.66735 -1.76132,0.66735 -1.76133,-0.4449 -2.97226,-0.44489 -1.8714,-1.11223 0.55041,-3.225481 -0.77058,-3.336705 0.77058,-1.334681 z"
       id="path40" /><path
       style="fill:#999f9f;fill-opacity:1;fill-rule:evenodd;stroke:#848484;stroke-width:1.36538;stroke-linecap:round;stroke-linejoin:round;stroke-dasharray:none;stroke-dashoffset:9.52666;stroke-opacity:1"
       d="m -9.6875805,29.173861 -0.8806695,2.55814 0.33024,3.336708 0.7705895,1.779572 -0.5504195,1.890803 0.8806695,0.889792 -1.2109195,2.669363 0.6605095,2.44691 12.54948,2.44691 2.53191,-1.4459 0.22017,-7.118295 0.66049,-1.779583 -0.22017,-2.558143 0.77059,-2.113243 -0.33025,-2.335693 -1.43109,-0.667341 -7.37556,-0.778567 -5.61424,0.222449 z"
       id="path41" /><path
       style="fill:#9a9c9c;fill-opacity:1;fill-rule:evenodd;stroke:#848484;stroke-width:1.36538;stroke-linecap:round;stroke-linejoin:round;stroke-dasharray:none;stroke-dashoffset:9.52666;stroke-opacity:1"
       d="m -125.81677,49.512659 3.89203,-1.41565 7.98078,-0.47188 2.80226,0.94376 2.02387,-0.94376 1.86816,0.78648 -0.62273,3.30316 0.62273,3.14588 -0.46705,3.14588 0.31137,2.67399 -0.93409,1.25836 1.08977,1.88752 -2.33522,1.57293 -2.02385,-0.47187 -8.44782,0.47187 -2.95794,-0.94375 -1.24545,1.25835 -1.40113,-1.10107 0.15568,-1.88752 -0.15568,-1.73024 0.62272,-2.04481 -1.24545,-1.41565 -0.31136,-2.20211 0.93409,-1.73024 -0.62273,-2.04482 z"
       id="path42"
       sodipodi:nodetypes="cccccccccccccccccccccccccc" /><path
       style="fill:#a0a3a3;fill-opacity:1;fill-rule:evenodd;stroke:#848484;stroke-width:1.36538;stroke-linecap:round;stroke-linejoin:round;stroke-dasharray:none;stroke-dashoffset:9.52666;stroke-opacity:1"
       d="m -105.07013,49.905889 3.96986,-0.15729 1.71249,0.47188 0.62273,-0.86512 4.74828,0.47188 1.40113,1.73023 2.64658,-1.10105 0.23352,6.68499 0.46704,3.06723 -0.93408,2.35941 0.62272,0.86511 -0.0779,1.88753 -2.33521,1.25835 -3.58067,0.62917 -2.02386,-0.23594 -4.28124,0.23594 -1.08976,-1.25835 -0.23352,1.1797 -2.56874,-1.88752 -0.15568,-4.24694 0.62273,-0.47188 -0.85626,-2.59534 0.38921,-2.5167 -0.85624,-2.04483 z"
       id="path43" /><path
       style="fill:#919799;fill-opacity:1;fill-rule:evenodd;stroke:#848484;stroke-width:1.36538;stroke-linecap:round;stroke-linejoin:round;stroke-dasharray:none;stroke-dashoffset:9.52666;stroke-opacity:1"
       d="m -88.8374,48.637979 5.06383,-1.33469 3.19241,0.55613 1.65125,-0.33368 0.44033,1.22347 1.9815,0.55612 2.31175,-1.77959 1.10082,1.22347 0.55043,3.44792 -0.55043,2.55815 0.66051,4.00404 -0.77059,1.22346 0.77059,4.906336 -3.52266,2.11325 -3.41259,0.11123 -2.86215,-0.55613 -1.321,1.33469 -3.963,-0.11123 -1.10083,-2.00202 -0.22017,-7.242036 0.88066,-1.55712 -0.22016,-4.00405 -0.77058,-2.11325 z"
       id="path44"
       sodipodi:nodetypes="cccccccccccccccccccccccc" /><path
       style="fill:#a4a5a6;fill-opacity:1;fill-rule:evenodd;stroke:#848484;stroke-width:1.36538;stroke-linecap:round;stroke-linejoin:round;stroke-dasharray:none;stroke-dashoffset:9.52666;stroke-opacity:1"
       d="m -39.623279,47.636959 12.725439,0.55613 1.321,-0.22244 1.87141,1.22345 -0.33024,2.44692 0.55041,1.4459 -0.11008,1.77958 -0.55042,1.22346 0.77058,6.45096 -0.88066,0.77857 0.77058,0.88979 -1.21092,1.55713 -11.844769,0.22244 -3.19241,-1.55712 0.22016,-4.89384 -0.77058,-3.89282 1.21091,-1.66836 -0.11008,-1.55713 -0.55041,-1.55713 z"
       id="path45"
       sodipodi:nodetypes="cccccccccccccccccccc" /><path
       style="fill:#a6a6a0;fill-opacity:1;fill-rule:evenodd;stroke:#848484;stroke-width:1.36538;stroke-linecap:round;stroke-linejoin:round;stroke-dasharray:none;stroke-dashoffset:9.52666;stroke-opacity:1"
       d="m -21.545378,48.637979 c 2.97226,-0.55611 4.07309,-0.22245 4.07309,-0.22245 l 3.08232,0.4449 h 3.63275 l 0.66049,1.33468 -0.33025,10.34379 0.22017,4.56016 -2.31174,0.77857 h -2.53192 l -2.86216,-0.22245 -4.07308,-0.44489 -0.55042,-2.11325 0.88067,-2.55814 -0.77057,-2.55814 0.22016,-3.44794 0.55041,-1.4459 z"
       id="path46" /><path
       style="fill:#90908e;fill-opacity:1;fill-rule:evenodd;stroke:#848484;stroke-width:1.36538;stroke-linecap:round;stroke-linejoin:round;stroke-dasharray:none;stroke-dashoffset:9.52666;stroke-opacity:1"
       d="m -9.3946199,49.527769 4.18316,-0.55611 0.9907595,0.88978 3.85289999,-1.11223 3.74284001,0.44489 1.76132,-1.00101 1.43108,2.44692 0.22017,3.44792 0.55042,1.33469 -0.99075,1.00101 0.6605,6.11729 -0.77058,2.44692 -2.09158,0.77857 h -2.75209 l -2.64198,-0.77857 -2.31176,1.11223 -1.6512495,-0.88978 h -3.74282 l -0.88067,-1.22346 0.33025,-3.00304 0.22017,-3.44793 -0.7705801,-2.11324 0.3302401,-3.11427 z"
       id="path47" /><path
       style="fill:#9ca0a0;fill-opacity:1;fill-rule:evenodd;stroke:#848484;stroke-width:1.36538;stroke-linecap:round;stroke-linejoin:round;stroke-dasharray:none;stroke-dashoffset:9.52666;stroke-opacity:1"
       d="m -115.25736,69.548009 c 0.88066,0 3.74282,-0.77858 3.74282,-0.77858 l 0.33026,1.00103 2.642,-0.88979 6.60499,0.55612 0.77058,0.44489 v 3.78159 l -0.22017,3.33672 -0.44034,6.33974 -1.54116,0.77856 -8.47641,-0.33367 -2.09157,0.22245 -1.76134,-1.3347 c 0,0 0.44034,-8.45298 0.44034,-8.89788 0,-0.44488 0,-4.22648 0,-4.22648 z"
       id="path48" /><path
       style="fill:#939393;fill-opacity:1;fill-rule:evenodd;stroke:#848484;stroke-width:1.36538;stroke-linecap:round;stroke-linejoin:round;stroke-dasharray:none;stroke-dashoffset:9.52666;stroke-opacity:1"
       d="m -64.39893,69.103119 3.41258,0.77856 1.321,-0.66734 1.54116,0.66734 1.76133,-1.89081 3.63275,1.22347 0.88067,-1.44591 4.07307,1.11224 -0.44033,10.45501 0.6605,4.78261 -0.77058,1.33468 -4.84366,0.4449 -0.99076,-0.66735 -0.44032,0.77857 -3.41259,-0.11122 -1.10083,-0.55612 -0.77058,0.66734 -2.97224,-0.22244 -2.20167,-2.11325 0.44034,-3.55916 -0.77059,-2.00202 0.77059,-2.89182 -0.44034,-1.89079 z"
       id="path49" /><path
       style="fill:#999a9a;fill-opacity:1;fill-rule:evenodd;stroke:#848484;stroke-width:1.36538;stroke-linecap:round;stroke-linejoin:round;stroke-dasharray:none;stroke-dashoffset:9.52666;stroke-opacity:1"
       d="m -26.75048,69.214339 1.10084,-1.55714 2.09158,0.66734 2.53191,-0.77856 5.39407,0.8898 2.642,-1.00103 h 1.65124 l 1.10083,3.33672 -0.55041,1.89079 0.11008,2.78059 0.33025,2.22447 -0.44033,2.44692 0.6605,2.44691 -0.55042,2.66937 -3.30249,-0.55611 h -2.31175 l -1.76132,1.00101 -1.54117,-0.4449 -5.94449,0.66735 -1.43108,-1.8908 0.55041,-3.22549 -0.99075,-5.33873 1.43108,-4.22649 z"
       id="path50" /><path
       style="fill:#8e9295;fill-opacity:1;fill-rule:evenodd;stroke:#848484;stroke-width:1.36538;stroke-linecap:round;stroke-linejoin:round;stroke-dasharray:none;stroke-dashoffset:9.52666;stroke-opacity:1"
       d="m -10.23801,69.325559 1.5411695,-1.55713 5.06383,1.22346 2.09158,-1.66836 5.72433,0.11122 1.54116,1.77959 0.11008,1.55713 0.44033,1.4459 -0.22017,4.11527 0.88068,1.55713 -1.10084,2.89181 0.55042,1.89079 -0.55042,1.55715 -10.4579,1.33468 -2.20166,-1.00101 -1.21091,0.33367 -1.65125,-1.22346 0.33025,-2.00203 -0.55042,-2.33569 v -5.11629 l 0.6605,-0.88978 -0.44033,-1.77958 v -2.00202 z"
       id="path51" /><path
       style="fill:#b0b2b1;fill-opacity:1;fill-rule:evenodd;stroke:#848484;stroke-width:1.36538;stroke-linecap:round;stroke-linejoin:round;stroke-dasharray:none;stroke-dashoffset:9.52666;stroke-opacity:1"
       d="m -77.38875,88.900899 4.18316,-0.88979 2.31176,0.55612 c 0,0 2.64199,-0.33367 3.08232,-0.33367 0.44034,0 2.53192,0.66734 2.53192,0.66734 l 1.43108,-0.55612 0.77058,0.77856 0.99075,7.22955 -0.55041,6.117291 -3.3025,2.00202 h -5.9445 l -1.8714,-0.33367 -3.41259,-0.22244 -0.55042,-1.55714 0.22017,-2.669361 0.99075,-2.11325 -0.77058,-2.11325 -0.44034,-2.66937 c 0,0 1.321,-1.66834 1.10083,-2.11324 -0.22016,-0.44489 -0.77058,-1.77958 -0.77058,-1.77958 z"
       id="path52" /><path
       style="fill:#a4a5a3;fill-opacity:1;fill-rule:evenodd;stroke:#848484;stroke-width:1.36538;stroke-linecap:round;stroke-linejoin:round;stroke-dasharray:none;stroke-dashoffset:9.52666;stroke-opacity:1"
       d="m -40.62096,88.567229 c 0,0.44489 0.88066,0.66734 0.88066,0.66734 l 0.88067,-1.00101 5.06382,-0.66734 3.63275,0.44489 2.09158,0.66734 0.22016,3.55916 0.66051,7.34075 -0.77059,3.114261 0.33025,1.44591 -2.42183,0.4449 -1.321,-0.4449 -1.321,0.66734 -1.54115,-0.66734 -2.642,0.77857 -2.42184,-0.4449 -1.76132,-2.11325 -0.22017,-4.893831 0.88067,-1.00101 -0.99075,-1.22347 0.33025,-2.22447 0.44033,-1.22345 -0.44033,-1.22346 z"
       id="path53" /><path
       style="fill:#a6a7a4;fill-opacity:1;fill-rule:evenodd;stroke:#848484;stroke-width:1.36538;stroke-linecap:round;stroke-linejoin:round;stroke-dasharray:none;stroke-dashoffset:9.52666;stroke-opacity:1"
       d="m -10.34809,103.02629 -0.11008,-6.117291 0.7705895,-4.67139 0.44033,-4.2265 1.43108,-0.77856 0.33025,0.88979 1.10083,-0.88979 4.73358,0.22245 1.87141,-0.77857 3.963,1.11223 0.44033,10.01013 0.77058,4.115261 -0.99074,1.11224 h -3.85292 l -2.42182,-0.22245 -2.64201,0.66734 z"
       id="path54" /><path
       style="fill:#9d9d9d;fill-opacity:1;fill-rule:evenodd;stroke:#848484;stroke-width:1.36538;stroke-linecap:round;stroke-linejoin:round;stroke-dasharray:none;stroke-dashoffset:9.52666;stroke-opacity:1"
       d="m -113.49603,106.69667 h 1.65124 l 1.43109,-0.77856 5.72432,1.00101 c 0,0 1.98151,-0.77856 2.53192,-0.77856 0.55041,0 3.96299,0.88978 3.96299,0.88978 l 0.66051,3.22548 0.55041,2.78059 -0.44033,6.00608 -0.77059,4.11526 c 0,0 -4.73357,0.44489 -5.17391,0.44489 -0.44033,0 -5.50415,0.77858 -5.50415,0.77858 l -2.75209,-0.8898 -2.20166,0.22245 c 0,0 -0.11008,-4.22649 -0.11008,-4.78261 0,-0.55612 0.11008,-5.33873 0.11008,-5.33873 l -0.55042,-3.44793 z"
       id="path55" /><path
       style="fill:#959796;fill-opacity:1;fill-rule:evenodd;stroke:#848484;stroke-width:1.36538;stroke-linecap:round;stroke-linejoin:round;stroke-dasharray:none;stroke-dashoffset:9.52666;stroke-opacity:1"
       d="m -94.45165,106.69667 3.30251,0.88979 1.21091,-0.66734 4.29325,0.55612 0.66049,-0.77857 5.06384,0.77857 0.5504,3.11426 -0.66049,1.8908 0.55042,1.77957 -0.22017,1.77957 -0.6605,1.77959 0.44034,5.67239 -1.321,1.33469 -2.42184,-0.33367 -0.88067,-0.77857 -1.10082,1.00102 -1.54117,-0.22245 -0.6605,-0.77857 -2.53192,-0.22245 -2.97224,0.33367 -2.31175,-1.66835 -0.6605,-3.89282 0.88067,-0.22245 -0.22017,-2.44692 0.33025,-2.78058 -0.77058,-1.8908 0.33025,-1.44592 z"
       id="path56" /><path
       style="fill:#969898;fill-opacity:1;fill-rule:evenodd;stroke:#848484;stroke-width:1.36538;stroke-linecap:round;stroke-linejoin:round;stroke-dasharray:none;stroke-dashoffset:9.52666;stroke-opacity:1"
       d="m -78.3795,107.58646 1.21092,-0.77857 h 10.67807 l 4.51341,1.11223 0.55041,3.55917 -0.22017,2.22446 -0.55041,1.44591 0.22017,3.00303 -0.33025,1.77958 v 2.44692 l -2.42182,1.33468 h -4.51342 l -3.30249,0.66735 -3.08234,-0.11122 -2.09158,-2.44693 -0.6605,-3.00303 -0.33025,-3.89283 1.321,-1.8908 -1.21091,-2.33569 z"
       id="path57" /><path
       style="fill:#959999;fill-opacity:1;fill-rule:evenodd;stroke:#848484;stroke-width:1.36538;stroke-linecap:round;stroke-linejoin:round;stroke-dasharray:none;stroke-dashoffset:9.52666;stroke-opacity:1"
       d="m -60.21577,107.36401 4.62349,-0.66734 10.23773,1.00101 0.44034,6.56219 -0.99074,2.44691 0.44032,4.78262 -0.44032,2.89182 -2.642,0.77856 -3.30249,-1.44591 -7.2655,0.77857 -1.818,-0.43141 -0.44032,-1.33468 1.15749,-2.4604 -0.6605,-3.67039 -0.11008,-3.44793 0.66049,-2.33569 z"
       id="path58"
       sodipodi:nodetypes="ccccccccccccccccc" /><path
       style="fill:#93999a;fill-opacity:1;fill-rule:evenodd;stroke:#848484;stroke-width:1.36538;stroke-linecap:round;stroke-linejoin:round;stroke-dasharray:none;stroke-dashoffset:9.52666;stroke-opacity:1"
       d="m -43.26296,107.47524 c 0,0 7.15541,-0.11123 7.59575,-0.11123 0.44033,0 2.5319,-1.22345 2.5319,-1.22345 l 5.39408,-0.33368 0.6605,0.88979 -0.55042,2.33569 0.55042,2.11326 -0.22017,1.89079 -0.22017,2.22447 0.44034,1.8908 -0.33025,4.11528 -1.10082,3.33669 -3.19242,-0.44489 -4.07308,0.8898 -3.08233,-0.66734 -1.65125,0.44489 -0.88066,-0.77857 -1.87142,-0.66734 -0.44033,-2.66937 0.55042,-1.66834 v -3.00305 l -0.77059,-2.00201 z"
       id="path59" /><path
       style="fill:#a6a9a8;fill-opacity:1;fill-rule:evenodd;stroke:#848484;stroke-width:1.36538;stroke-linecap:round;stroke-linejoin:round;stroke-dasharray:none;stroke-dashoffset:9.52666;stroke-opacity:1"
       d="m -91.58948,89.234569 0.22017,10.34379 -0.44033,3.114261 1.10082,1.55713 h 6.05458 l 3.63275,-0.66733 1.43109,0.44489 0.22015,-7.785661 -0.66049,-2.78058 0.88066,-1.8908 -0.33024,-3.11426 -1.9815,-1.8908 -4.51341,2.11324 -3.74283,-0.77856 z"
       id="path60" /><path
       style="fill:#a3a6a5;fill-opacity:1;fill-rule:evenodd;stroke:#848484;stroke-width:1.36538;stroke-linecap:round;stroke-linejoin:round;stroke-dasharray:none;stroke-dashoffset:9.52666;stroke-opacity:1"
       d="m -125.59652,126.82813 1.76134,-0.88979 7.03665,0.33368 1.76134,0.66733 1.21091,-0.88978 3.08232,0.77856 0.99076,-0.88979 2.86215,0.33368 1.32101,4.00404 -0.55042,8.45299 0.44033,2.77746 c 0,0 -0.22016,1.33468 -0.66049,1.33468 -0.44034,0 -1.87142,-0.55611 -1.87142,-0.55611 l -0.55041,0.55611 -15.51307,-0.33367 -0.11008,-1.00101 -1.54116,-0.11122 -0.33025,-4.77949 0.88066,-3.11426 z"
       id="path61"
       sodipodi:nodetypes="cccccccccccscccccccc" /><path
       style="fill:#939596;fill-opacity:1;fill-rule:evenodd;stroke:#848484;stroke-width:1.36538;stroke-linecap:round;stroke-linejoin:round;stroke-dasharray:none;stroke-dashoffset:9.52666;stroke-opacity:1"
       d="m -103.80871,126.04957 14.53097,0.4449 1.10084,0.55611 -0.22016,2.22447 0.6605,1.11223 -0.44034,5.11629 -1.21092,1.33468 v 2.44693 l 0.66051,0.88978 -0.44034,3.00303 -3.19241,-0.66734 -1.321,0.66734 -1.87142,-1.00101 -2.64199,1.00101 -3.52267,-1.00101 -2.86215,-2.33569 -0.22017,-4.2265 0.6605,-4.44895 -0.55042,-1.77957 z"
       id="path62" /><path
       style="fill:#a8a9a9;fill-opacity:1;fill-rule:evenodd;stroke:#848484;stroke-width:1.36538;stroke-linecap:round;stroke-linejoin:round;stroke-dasharray:none;stroke-dashoffset:9.52666;stroke-opacity:1"
       d="m -52.8402,126.93935 3.85291,-0.88978 1.98151,0.55612 1.54115,-0.88979 1.87142,0.44489 0.88067,-0.33367 2.97224,-0.11122 0.99075,0.66734 -0.44034,0.88978 0.33026,3.11426 0.55042,1.44592 -0.55042,2.22446 0.11008,2.89181 -0.44034,2.00203 0.44034,2.75142 -2.75208,0.55611 -4.62349,0.4449 -1.54116,-0.77857 -2.75209,0.44489 -1.32099,0.4449 -0.55042,-0.33367 c 0,0 -1.21091,-2.97386 -1.21091,-3.41875 0,-0.4449 0.88066,-1.89081 0.88066,-1.89081 l -1.10083,-4.00404 0.6605,-1.33468 -0.77058,-1.66836 1.10083,-1.55713 z"
       id="path63"
       sodipodi:nodetypes="cccccccccccccccccccccscccccc" /><path
       style="fill:#afb1ae;fill-opacity:1;fill-rule:evenodd;stroke:#848484;stroke-width:1.36538;stroke-linecap:round;stroke-linejoin:round;stroke-dasharray:none;stroke-dashoffset:9.52666;stroke-opacity:1"
       d="m -8.2565005,125.49345 h 3.74282 l 4.07309,0.66734 0.99074,-0.88978 2.20167,0.33366 1.321,-0.66733 2.09157,0.44489 0.77059,6.56219 -0.55042,10.46125 -4.62349,-0.11122 -1.10084,0.77857 -3.96299,-0.77857 -0.55042,0.66735 -3.96299,-0.4449 -0.44033,-6.01232 -0.22017,-3.67037 0.11009,-4.44895 -0.33026,-1.89079 z"
       id="path64"
       sodipodi:nodetypes="ccccccccccccccccccc" /><path
       style="fill:#959899;fill-opacity:1;fill-rule:evenodd;stroke:#848484;stroke-width:1.36538;stroke-linecap:round;stroke-linejoin:round;stroke-dasharray:none;stroke-dashoffset:9.52666;stroke-opacity:1"
       d="m -93.76837,9.5200693 c -2.97224,-0.556117 -4.07308,-0.222448 -4.07308,-0.222448 l -3.08232,0.444897 h -3.63275 l -0.6605,1.3346807 0.33025,12.969529 -0.22017,4.560163 2.31175,0.778564 h 2.53191 l 2.86217,-0.222448 4.07308,-0.444889 0.55041,-2.113254 -0.88067,-2.558136 0.77059,-2.558142 -0.22017,-6.073666 -0.55042,-1.44591 z"
       id="path65"
       sodipodi:nodetypes="ccccccccccccccccc" /><path
       style="fill:#9c9c9c;fill-opacity:1;fill-rule:evenodd;stroke:#848484;stroke-width:1.24149;stroke-linecap:round;stroke-linejoin:round;stroke-dasharray:none;stroke-dashoffset:9.52666;stroke-opacity:1"
       d="m -90.87756,31.993532 -3.10293,0.707929 -1.20115,-0.606799 -1.40132,0.606799 -1.60151,-1.71925 -3.30314,1.112451 -0.80076,-1.314708 -3.70351,1.011316 0.40038,9.50639 -0.60056,4.348659 0.70066,1.21357 4.40417,0.40453 0.90086,-0.6068 0.40037,0.70793 3.10295,-0.10112 1.00095,-0.50566 0.70066,0.60679 2.70255,-0.20226 2.00191,-1.9215 -0.40039,-3.23621 0.70067,-1.820376 -0.70067,-2.629424 0.40039,-1.719235 z"
       id="path66" /><path
       style="fill:#a2a3a1;fill-opacity:1;fill-rule:evenodd;stroke:#848484;stroke-width:1.36538;stroke-linecap:round;stroke-linejoin:round;stroke-dasharray:none;stroke-dashoffset:9.52666;stroke-opacity:1"
       d="m -76.50807,31.620779 -0.22017,10.343779 0.44033,3.114261 -1.10083,1.55712 h -6.05458 l -3.63274,-0.66733 -1.43109,0.44489 -0.22016,-7.785635 0.6605,-2.780594 -0.88067,-1.890792 0.33025,-3.114264 1.9815,-1.890798 4.51341,2.113247 3.74282,-0.778566 z"
       id="path67" /><path
       style="fill:#a5aaaa;fill-opacity:1;fill-rule:evenodd;stroke:#848484;stroke-width:1.36538;stroke-linecap:round;stroke-linejoin:round;stroke-dasharray:none;stroke-dashoffset:9.52666;stroke-opacity:1"
       d="m -125.88636,31.984154 1.76133,-0.889793 5.59256,0.333676 1.76134,0.667337 1.21091,-0.889785 3.08233,0.778565 0.99075,-0.889793 2.86215,0.333676 1.32101,4.004042 -0.55042,6.408169 0.44033,3.447931 c 0,0 -0.22016,1.33468 -0.66049,1.33468 -0.44034,0 -1.87141,-0.55612 -1.87141,-0.55612 l -0.55042,0.55612 -14.06897,-0.33368 -0.11008,-1.001 -1.54117,-0.11123 -0.33025,-5.449944 0.88066,-3.114265 z"
       id="path61-6"
       sodipodi:nodetypes="cccccccccccscccccccc" /><path
       style="fill:#b5ab9b;fill-opacity:1;fill-rule:evenodd;stroke:#848484;stroke-width:1.36538;stroke-linecap:round;stroke-linejoin:round;stroke-dasharray:none;stroke-dashoffset:9.52666;stroke-opacity:1"
       d="m -59.22501,30.286095 -1.10084,-1.55713 -2.09157,0.667344 -2.53192,-0.778564 -5.39407,0.889785 -2.64201,-1.001013 h -1.65124 l -1.10083,3.336707 0.55042,1.890803 -0.11008,2.780584 -0.33026,2.224473 0.44034,2.446924 -0.66051,2.446911 0.55043,2.66936 3.30248,-0.55612 h 2.31175 l 1.76134,1.00102 1.54116,-0.4449 5.94449,0.66734 1.43108,-1.89079 -0.55042,-3.225491 0.99076,-5.338727 -1.43108,-4.226485 z"
       id="path68" /><path
       style="fill:#909697;fill-opacity:1;fill-rule:evenodd;stroke:#848484;stroke-width:1.36538;stroke-linecap:round;stroke-linejoin:round;stroke-dasharray:none;stroke-dashoffset:9.52666;stroke-opacity:1"
       d="m -60.6561,49.194099 c 0,0.44489 -0.88066,0.66734 -0.88066,0.66734 l -0.88066,-1.00101 -2.86216,-0.66734 -3.63274,0.44489 -2.09159,0.66735 -0.22017,3.55914 -0.66051,7.34075 0.77059,5.899284 -0.33024,1.4459 7.04532,0.77857 2.42182,-0.4449 1.76134,-2.11324 0.22017,-7.678854 -0.88068,-1.00101 0.99076,-1.22346 -0.33025,-2.22448 -0.44034,-1.22345 0.44034,-1.22346 z"
       id="path69"
       sodipodi:nodetypes="cccccccccccccccccccc" /><path
       style="fill:#aeaead;fill-opacity:1;fill-rule:evenodd;stroke:#848484;stroke-width:1.36538;stroke-linecap:round;stroke-linejoin:round;stroke-dasharray:none;stroke-dashoffset:9.52666;stroke-opacity:1"
       d="m -43.26943,48.850689 -4.6235,-0.66733 -10.23774,1.001 -0.44032,6.5622 0.99074,2.44692 -0.44034,4.7826 0.44034,2.89182 2.642,0.77856 3.30249,-1.4459 7.26549,0.77857 1.818,-0.4314 0.44033,-1.33468 -1.15749,-2.46042 0.6605,-3.67038 0.11008,-3.44793 -0.6605,-2.33569 z"
       id="path70"
       sodipodi:nodetypes="ccccccccccccccccc" /><path
       style="fill:#909394;fill-opacity:1;fill-rule:evenodd;stroke:#848484;stroke-width:1.30126;stroke-linecap:round;stroke-linejoin:round;stroke-dasharray:none;stroke-dashoffset:9.52666;stroke-opacity:1"
       d="m -10.40818,31.218313 -1.15404,-0.742 h -10.17657 l -4.30145,1.059998 -0.52456,3.391997 0.20983,2.119999 0.52456,1.378 -0.20983,2.861996 0.31474,1.696006 v 2.33199 l 2.3081,1.272 h 4.30143 l 3.1474,0.636 2.93757,-0.10598 1.99335,-2.332 0.62947,-2.861992 0.31475,-3.710003 -1.25896,-1.801997 1.15404,-2.225995 z"
       id="path71" /><path
       style="fill:#c2c3bf;fill-opacity:1;fill-rule:evenodd;stroke:#848484;stroke-width:1.36538;stroke-linecap:round;stroke-linejoin:round;stroke-dasharray:none;stroke-dashoffset:9.52666;stroke-opacity:1"
       d="m -66.82074,70.660239 -3.85291,-0.88978 -1.98151,0.55611 -1.54116,-0.88978 -1.87142,0.44489 -0.88067,-0.33367 -2.97224,-0.11122 -0.99075,0.66733 0.44034,0.88979 -0.33026,3.11425 -0.55041,1.44591 0.55041,2.22447 -0.11008,2.89181 0.44034,2.00202 -0.44034,1.66837 2.75208,0.55612 4.6235,0.44489 1.54116,-0.77856 2.75209,0.44489 1.321,0.44489 0.55042,-0.33367 c 0,0 1.2109,-1.8908 1.2109,-2.33569 0,-0.4449 -0.88066,-1.8908 -0.88066,-1.8908 l 1.10083,-4.00405 -0.6605,-1.33469 0.77058,-1.66835 -1.10083,-1.55713 z"
       id="path72" /><path
       style="fill:#969c9c;fill-opacity:1;fill-rule:evenodd;stroke:#848484;stroke-width:1.36538;stroke-linecap:round;stroke-linejoin:round;stroke-dasharray:none;stroke-dashoffset:9.52666;stroke-opacity:1"
       d="m -84.76432,68.213319 -3.30249,0.88979 -1.21092,-0.66733 -4.29324,0.55611 -0.6605,-0.77857 -5.06383,0.77857 -0.55041,3.11426 0.6605,1.89079 -0.55042,1.77959 0.22016,1.77957 0.66051,1.77957 -0.44034,5.67241 1.321,1.33468 2.42183,-0.33367 0.88066,-0.77857 1.10084,1.00102 1.54117,-0.22245 0.6605,-0.77857 2.53191,-0.22244 2.97224,0.33366 2.31175,-1.66834 0.6605,-3.89283 -0.88067,-0.22245 0.22017,-2.44691 -0.33025,-2.7806 0.77058,-1.8908 -0.33025,-1.4459 z"
       id="path73" /><path
       style="fill:#ababa6;fill-opacity:1;fill-rule:evenodd;stroke:#848484;stroke-width:1.36538;stroke-linecap:round;stroke-linejoin:round;stroke-dasharray:none;stroke-dashoffset:9.52666;stroke-opacity:1"
       d="m -29.17231,69.214339 h -3.74282 l -4.07308,0.66734 -0.99075,-0.88979 -2.20166,0.33367 -1.321,-0.66735 -2.09158,0.4449 -0.77059,6.56218 0.55042,9.12034 4.62349,-0.11122 1.10084,0.77856 3.963,-0.77856 0.55041,0.66734 3.96299,-0.44489 0.44033,-4.6714 0.22017,-3.67037 -0.11009,-4.44894 0.33026,-1.8908 z"
       id="path74" /><path
       style="fill:#a3a3a3;fill-opacity:1;fill-rule:evenodd;stroke:#848484;stroke-width:1.36538;stroke-linecap:round;stroke-linejoin:round;stroke-dasharray:none;stroke-dashoffset:9.52666;stroke-opacity:1"
       d="m -94.23147,87.566219 -14.53098,0.44489 -1.10083,0.55612 0.22016,2.22447 -0.6605,1.11223 0.44034,5.11629 1.21092,1.33468 v 2.446921 l -0.66051,0.88978 0.44034,3.00304 3.19241,-0.66733 1.321,0.66733 1.87142,-1.001 2.64199,1.001 3.52267,-1.001 2.86215,-2.3357 0.22017,-4.226501 -0.6605,-4.44894 0.55041,-1.77957 z"
       id="path75" /><path
       style="fill:#949698;fill-opacity:1;fill-rule:evenodd;stroke:#848484;stroke-width:1.36538;stroke-linecap:round;stroke-linejoin:round;stroke-dasharray:none;stroke-dashoffset:9.52666;stroke-opacity:1"
       d="m -112.12161,87.566219 -4.62349,-0.66734 -10.23773,1.001 -0.44034,6.5622 0.99075,2.44692 -0.44033,4.782601 0.44033,2.89182 2.64199,0.77857 3.30249,-1.4459 7.2655,0.77856 1.818,-0.4314 0.44032,-1.33469 -1.15749,-2.46041 0.6605,-3.670391 0.11008,-3.44792 -0.66049,-2.33569 z"
       id="path76"
       sodipodi:nodetypes="ccccccccccccccccc" /><path
       style="fill:#8f9293;fill-opacity:1;fill-rule:evenodd;stroke:#848484;stroke-width:1.36538;stroke-linecap:round;stroke-linejoin:round;stroke-dasharray:none;stroke-dashoffset:9.52666;stroke-opacity:1"
       d="m -116.24811,106.363 -7.15541,0.55612 -1.32099,-0.22245 -1.87142,1.22345 0.33025,2.44692 -0.55042,1.44591 0.11008,1.77958 0.55043,1.22346 -0.77059,6.45096 0.88067,0.77857 -0.77059,0.88979 1.21092,1.55713 6.27474,0.22245 3.19241,-1.55714 -0.22016,-4.89383 0.77058,-3.89283 -1.21092,-1.66834 0.11008,-1.55713 0.55042,-1.55714 z"
       id="path77" /><path
       style="fill:#9ca1a1;fill-opacity:1;fill-rule:evenodd;stroke:#848484;stroke-width:1.17412;stroke-linecap:round;stroke-linejoin:round;stroke-dasharray:none;stroke-dashoffset:9.52666;stroke-opacity:1"
       d="m -116.77365,83.253639 -0.18933,-11.56427 0.37865,-2.67804 -0.94663,-1.33901 h -5.20649 l -3.1239,0.57387 -1.23062,-0.38258 -0.18934,7.91855 0.56798,3.83701 -0.7573,1.62595 0.28399,2.67803 1.70395,1.62595 3.88119,-1.81723 3.21857,0.66951 z"
       id="path78"
       sodipodi:nodetypes="ccccccccccccccc" /><path
       style="fill:#959694;fill-opacity:1;fill-rule:evenodd;stroke:#848484;stroke-width:1.36538;stroke-linecap:round;stroke-linejoin:round;stroke-dasharray:none;stroke-dashoffset:9.52666;stroke-opacity:1"
       d="m -44.14363,88.011119 h -1.65123 l -1.43109,-0.77857 -5.72433,1.00102 c 0,0 -1.9815,-0.77857 -2.53192,-0.77857 -0.55041,0 -3.96299,0.88979 -3.96299,0.88979 l -0.6605,3.22548 -0.55041,2.78059 0.44033,6.006071 0.77058,4.11528 c 0,0 4.73358,0.44489 5.17391,0.44489 0.44034,0 5.50416,0.77856 5.50416,0.77856 l 2.75209,-0.88978 2.20166,0.22244 c 0,0 0.11008,-4.22649 0.11008,-4.78262 0,-0.556111 -0.11008,-5.338731 -0.11008,-5.338731 l 0.55041,-3.44792 z"
       id="path79" /><path
       style="fill:#a9a199;fill-opacity:1;fill-rule:evenodd;stroke:#848484;stroke-width:1.20412;stroke-linecap:round;stroke-linejoin:round;stroke-dasharray:none;stroke-dashoffset:9.52666;stroke-opacity:1"
       d="m -11.62092,89.054999 -1.55333,-0.7847 -3.20368,0.29427 -1.55331,0.58852 -1.0679,-0.78471 -2.71829,0.68662 -0.87374,-0.7847 -2.52411,0.29427 -1.16499,3.53114 0.48541,7.45463 -0.38832,3.040721 c 0,0 0.19416,1.17705 0.58248,1.17705 0.38832,0 1.65039,-0.49044 1.65039,-0.49044 l 0.48542,0.49044 10.67898,-0.29427 0.0971,-0.88278 1.35915,-0.0981 0.29123,-4.806291 -0.77665,-2.74644 z"
       id="path80" /><path
       style="fill:#adadab;fill-opacity:1;fill-rule:evenodd;stroke:#848484;stroke-width:1.36538;stroke-linecap:round;stroke-linejoin:round;stroke-dasharray:none;stroke-dashoffset:9.52666;stroke-opacity:1"
       d="m -8.3164005,105.5747 4.62349,-0.66734 10.23773,1.00101 0.44034,6.56219 -0.99075,2.44692 0.44033,4.78261 -0.44033,2.89181 -2.64199,0.77857 -3.3025,-1.4459 -7.26549,0.77856 -1.818,-0.4314 -0.44032,-1.33468 1.15749,-2.46042 -0.6605,-3.67037 -0.11008,-3.44794 0.66049,-2.33569 z"
       id="path81"
       sodipodi:nodetypes="ccccccccccccccccc" /><path
       style="fill:#a6a5a3;fill-opacity:1;fill-rule:evenodd;stroke:#848484;stroke-width:1.33368;stroke-linecap:round;stroke-linejoin:round;stroke-dasharray:none;stroke-dashoffset:9.52666;stroke-opacity:1"
       d="m -27.04296,126.01378 -0.10754,15.45678 1.72045,1.41234 2.2581,-0.32593 2.15057,0.54322 4.73124,-0.32593 2.47314,-0.54321 2.36562,0.43457 c 0,0 1.6266195,-7.08836 -0.32259,-13.82714 -0.18561,-0.64169 -0.32258,-2.39012 -0.32258,-2.39012 l -4.08606,-1.19507 h -8.06462 z"
       id="path82"
       sodipodi:nodetypes="ccccccccscccc" /><path
       style="fill:#a9aaa6;fill-opacity:1;fill-rule:evenodd;stroke:#848484;stroke-width:1.36538;stroke-linecap:round;stroke-linejoin:round;stroke-dasharray:none;stroke-dashoffset:9.52666;stroke-opacity:1"
       d="m -11.56548,123.37048 -4.62349,0.66733 -10.23773,-1.001 -0.44034,-6.5622 0.99076,-2.44691 -0.44034,-4.78261 0.44034,-2.89181 2.64199,-0.77857 3.3025,1.44591 7.26548,-0.77857 1.818,0.4314 0.44033,1.33468 -1.1575,2.46041 0.66051,3.67039 0.11008,3.44792 -0.6605,2.33569 z"
       id="path83"
       sodipodi:nodetypes="ccccccccccccccccc" /><path
       style="fill:#989e9e;fill-opacity:1;fill-rule:evenodd;stroke:#848484;stroke-width:1.36538;stroke-linecap:round;stroke-linejoin:round;stroke-dasharray:none;stroke-dashoffset:9.52666;stroke-opacity:1"
       d="m -38.19913,142.95958 7.15541,-0.55612 1.321,0.22244 1.8714,-1.22345 -0.33024,-3.73629 0.55041,-1.4459 -0.11008,-1.77957 -0.55042,-1.22346 0.77058,-3.61968 -0.88066,-0.77857 0.77058,-0.88978 -1.21091,-1.55713 -6.27474,-0.22245 -3.19241,1.55713 c 0.28288,3.07977 0.4245,3.21931 -0.55043,5.95537 l 1.21092,1.66835 -0.11008,1.55713 -0.55041,1.55714 z"
       id="path84"
       sodipodi:nodetypes="ccccccccccccccccccc" /><path
       style="fill:#aeafac;fill-opacity:1;fill-rule:evenodd;stroke:#848484;stroke-width:1.36538;stroke-linecap:round;stroke-linejoin:round;stroke-dasharray:none;stroke-dashoffset:9.52666;stroke-opacity:1"
       d="m -69.46275,142.42992 c 0.88067,0 3.74282,0.77857 3.74282,0.77857 l 0.33026,-1.00101 2.642,0.88978 6.60498,-0.55612 0.77059,-0.44489 0,-4.81309 -0.22017,-3.33671 -0.44033,-6.33974 -1.54116,-0.77856 -8.47641,0.33367 -2.09158,-0.22245 -1.76133,1.33469 c 0,0 0.44033,8.45298 0.44033,8.89789 z"
       id="path85"
       sodipodi:nodetypes="cccccccccccccsc" /><path
       style="fill:#aaacaa;fill-opacity:1;fill-rule:evenodd;stroke:#848484;stroke-width:1.36538;stroke-linecap:round;stroke-linejoin:round;stroke-dasharray:none;stroke-dashoffset:9.52666;stroke-opacity:1"
       d="m -71.66442,142.7331 h -3.74282 l -4.07308,-0.66734 -0.99075,0.88979 -2.20167,-0.33367 -1.321,0.66733 -2.09157,-0.44488 -0.77059,-6.56219 0.55042,-9.12033 4.62349,0.11122 1.10084,-0.77856 3.96299,0.77856 0.55042,-0.66734 3.96299,0.44489 0.44033,4.67139 0.22017,3.67038 -0.11009,4.44894 0.33026,1.8908 z"
       id="path86" /><path
       style="fill:#9ca1a1;fill-opacity:1;fill-rule:evenodd;stroke:#848484;stroke-width:1.17412;stroke-linecap:round;stroke-linejoin:round;stroke-dasharray:none;stroke-dashoffset:9.52666;stroke-opacity:1"
       d="m -3.2152504,25.925054 0.18933,-11.56427 -0.37865,-2.67804 0.94663,-1.339011 h 5.20649 l 3.1239,0.573871 1.23062,-0.38258 0.18934,7.91855 -0.56798,3.83701 0.7573,1.62595 -0.28399,2.67803 -1.70395,1.62595 -3.88119,-1.81723 -3.21857,0.66951 z"
       id="path529"
       sodipodi:nodetypes="ccccccccccccccc" /></g></svg>
